<svg width="189" height="161" viewBox="0 0 189 161" fill="none" xmlns="http://www.w3.org/2000/svg">
<path d="M81.3516 72.0421C99.662 100.07 99.6728 114.5 97.93 160H110.083C105.5 112.5 120.644 87.9456 125.667 81.2874C131.348 87.613 146.509 94.9119 161.703 73.5019C165.761 67.3384 176.118 49.3671 185.078 26.7893C185.202 26.0453 185.706 24.6187 186.807 23.6402C187.216 23.3819 187.614 23.1339 188 22.8966C172.904 23.5453 138.815 30.682 123.232 54.0383C120.797 58.5798 117.388 69.7065 123.232 77.8812C113.492 87.613 109.109 99.4534 108.135 104.157C100.733 85.0828 110.083 46.7395 110.083 46.7395C110.083 46.7395 98.6094 89.4924 99.6728 95.0821C97.0701 84.3956 88.1843 72.7379 83.9678 68.1494C93.522 52.4994 89.3368 40.3839 85.7344 36.0345C71.7094 9.56398 23.401 1.64879 1 1L36.5495 58.9042C53.3015 84.9854 73.3976 78.53 81.3516 72.0421Z" fill="#41D30D" stroke="black" stroke-width="2" stroke-linejoin="round"/>
</svg>
